<svg width="14" height="14" viewBox="0 0 14 14" fill="none" xmlns="http://www.w3.org/2000/svg">
<path fill-rule="evenodd" clip-rule="evenodd" d="M10.334 3.00016H13.6673V4.3335H12.334V13.0002C12.334 13.3684 12.0355 13.6668 11.6673 13.6668H2.33398C1.96579 13.6668 1.66732 13.3684 1.66732 13.0002V4.3335H0.333984V3.00016H3.66732V1.00016C3.66732 0.631973 3.96579 0.333496 4.33398 0.333496H9.66732C10.0355 0.333496 10.334 0.631973 10.334 1.00016V3.00016ZM11.0007 4.3335H3.00065V12.3335H11.0007V4.3335ZM6.33398 6.3335H5.00065V10.3335H6.33398V6.3335ZM7.66732 6.3335H9.00065V10.3335H7.66732V6.3335ZM5.00065 3.00016V1.66683H9.00065V3.00016H5.00065Z" fill="white" fill-opacity="0.87"/>
</svg>
